<svg id="Capa_1" enable-background="new 0 0 609.639 609.639" height="512" viewBox="0 0 609.639 609.639" width="512" xmlns="http://www.w3.org/2000/svg"><g><g id="Page-1_48_"><g id="_x30_49---Sonar"><path id="Shape_101_" d="m304.82 0c-168.348 0-304.82 136.472-304.82 304.82s136.472 304.82 304.82 304.82 304.82-136.472 304.82-304.82c-.191-168.269-136.552-304.63-304.82-304.82zm0 589.318c-157.124 0-284.498-127.374-284.498-284.498s127.373-284.499 284.498-284.499 284.498 127.374 284.498 284.499c-.179 157.049-127.449 284.319-284.498 284.498z"/><path id="Shape_100_" d="m304.82 40.643c-145.901 0-264.177 118.276-264.177 264.177s118.276 264.176 264.177 264.176 264.176-118.276 264.176-264.176c-.162-145.834-118.343-264.015-264.176-264.177zm0 508.032c-134.678 0-243.856-109.178-243.856-243.856s109.178-243.855 243.856-243.855 243.855 109.178 243.855 243.856c-.157 134.612-109.243 243.698-243.855 243.855z"/><path id="Shape_99_" d="m304.82 101.607c-41.056-.076-81.149 12.435-114.876 35.847-11.728-8.181-27.577-7.062-38.039 2.685-10.463 9.747-12.699 25.477-5.367 37.754-29.023 35.942-44.878 80.73-44.93 126.927-.008 10.758.851 21.498 2.571 32.118.801 4.912 5.042 8.52 10.018 8.525.551.001 1.102-.043 1.646-.132 2.662-.431 5.043-1.903 6.619-4.091s2.218-4.912 1.784-7.574c-1.554-9.537-2.328-19.184-2.317-28.846.045-41.39 14.194-81.53 40.114-113.799 3.41 1.321 7.032 2.009 10.689 2.032 9.654.135 18.785-4.374 24.547-12.122 5.761-7.747 7.451-17.79 4.543-26.997 30.273-20.908 66.207-32.075 102.999-32.006 95.571-.037 175.033 73.566 182.302 168.861 7.268 95.295-60.112 180.098-154.583 194.555-4.904-10.941-15.784-17.975-27.773-17.955-11.99.02-22.846 7.089-27.714 18.047-28.185-4.234-54.964-15.095-78.135-31.691l29.334-29.334c22.794 14.802 49.392 22.673 76.571 22.658 78.527-.084 142.165-63.722 142.249-142.249-.076-8.742-.974-17.458-2.682-26.032 11.825-8.058 16.389-23.299 10.938-36.53s-19.425-20.835-33.495-18.226c-35.383-51.182-99.925-73.428-159.329-54.917s-99.884 73.482-99.93 135.704c0 5.612 4.549 10.161 10.161 10.161s10.161-4.549 10.161-10.161c-.106-53.014 34.121-99.997 84.615-116.151s105.635 2.241 136.319 45.473c-7.658 8.674-9.689 20.96-5.228 31.637 4.46 10.677 14.627 17.867 26.18 18.516 1.246 6.772 1.906 13.639 1.971 20.525-.073 67.309-54.619 121.855-121.928 121.928-21.776.01-43.145-5.894-61.828-17.08l30.187-30.177c9.979 4.36 20.751 6.612 31.64 6.615 41.856-.007 76.864-31.796 80.895-73.458 4.031-41.661-24.234-79.572-65.312-87.603-41.078-8.03-81.539 16.446-93.494 56.558-1.396 5.305 1.671 10.761 6.929 12.325s10.808-1.328 12.539-6.533c8.972-30.079 39.316-48.429 70.121-42.405s52.001 34.454 48.981 65.696c-3.02 31.243-29.269 55.086-60.657 55.098-5.344.005-10.665-.706-15.82-2.113l18.472-18.472c21.688-1.372 38.44-19.597 37.982-41.324s-17.961-39.231-39.688-39.688c-21.727-.458-39.952 16.294-41.324 37.982l-113.186 113.179c-10.144 9.761-12.219 25.227-5.007 37.317s21.806 17.612 35.215 13.324c27.392 21.131 59.783 34.82 94.027 39.738 3.499 13.348 15.571 22.65 29.37 22.631s25.845-9.354 29.307-22.712c105.419-15.291 181.105-109.44 173.386-215.682-7.719-106.243-96.219-188.463-202.74-188.356zm-132.089 71.124c-5.612 0-10.161-4.549-10.161-10.161s4.549-10.161 10.161-10.161 10.161 4.549 10.161 10.161-4.549 10.161-10.161 10.161zm243.856 81.285c0-5.612 4.549-10.161 10.161-10.161s10.161 4.549 10.161 10.161-4.549 10.161-10.161 10.161-10.161-4.549-10.161-10.161zm-111.767 30.482c11.223 0 20.321 9.098 20.321 20.321s-9.098 20.321-20.321 20.321-20.321-9.098-20.321-20.321c-.001-11.223 9.097-20.321 20.321-20.321zm-139.273 159.522c-1.932-1.862-3.024-4.429-3.024-7.112s1.092-5.251 3.024-7.112l104.411-104.411c3.485 5.893 8.403 10.811 14.296 14.296l-104.41 104.411c-1.899 1.899-4.478 2.959-7.163 2.946-2.685-.014-5.254-1.1-7.134-3.018zm139.273 64.013c-5.586-.001-10.124-4.511-10.159-10.098-.035-5.586 4.447-10.153 10.032-10.223 5.586-.07 10.181 4.382 10.287 9.967v.122.132c-.033 5.588-4.573 10.1-10.16 10.1z"/></g></g></g></svg>